<svg id="Capa_1" enable-background="new 0 0 512 512" height="512" viewBox="0 0 512 512" width="512" xmlns="http://www.w3.org/2000/svg"><g><path d="m103.307 266.226c-48.315-24.398-88.307-48.436-88.307-95.666 0-53.558 38.233-81.047 70.308-94.677 92.498-39.307 264.452-17.221 356.128 71.169l10.412-10.798c-43.744-42.176-108.523-73.012-182.404-86.829-70.708-13.223-139.961-8.611-190.002 12.652-24.564 10.438-43.851 24.545-57.323 41.927-14.678 18.935-22.119 41.328-22.119 66.556 0 60.302 55.801 88.48 96.545 109.055 41.909 21.164 65.878 48.004 82.078 69.024l11.881-9.156c-25.502-33.088-52.395-55.682-87.197-73.257z"/><path d="m462.654 147.358-11.107 10.08c30.16 33.233 45.453 71.226 45.453 112.921 0 105.256-66.477 184.629-154.63 184.629-72.919 0-96.999-35.745-127.485-81-4.871-7.231-9.908-14.708-15.289-22.237l-12.203 8.722c5.26 7.36 10.238 14.75 15.053 21.896 15.551 23.085 30.24 44.89 51.177 61.01 23.58 18.155 51.78 26.61 88.748 26.61 48.077 0 91.733-20.937 122.927-58.954 30.116-36.705 46.702-86.665 46.702-140.676 0-45.538-16.603-86.922-49.346-123.001z"/><path d="m467 270.359c0-43.495-20.217-81.822-60.089-113.917-30.492-24.544-72.382-44.642-117.952-56.589-23.823-6.246-55.421-10.672-84.523-11.84l-.602 14.987c28.083 1.127 58.483 5.375 81.32 11.363 80.659 21.146 166.846 73.231 166.846 155.996 0 44.18-15.354 85.871-41.073 111.522l10.592 10.62c28.479-28.403 45.481-74.064 45.481-122.142z"/><path d="m189.119 102.686.041-15c-.361-.001-.718-.001-1.08-.001-47.197 0-108.275 8.513-133.735 48.639-9.666 15.233-13.813 39.602-3.036 56.703 12.354 19.601 43.332 35.228 63.831 45.568l1.689.853c41.707 21.061 73.941 49.179 104.519 91.169 6.608 9.076 12.373 17.958 17.948 26.547 23.622 36.395 44.022 67.826 103.074 67.826 25.187 0 47.749-7.394 67.062-21.975l-9.039-11.971c-16.649 12.571-36.172 18.945-58.022 18.945-4.697 0-9.098-.221-13.243-.644l5.196-19.799-14.508-3.808-5.5 20.958c-25.904-6.853-40.018-23.924-54.975-46.315l38.571-146.407-14.506-3.821-35.121 133.319c-4.588-7.029-9.395-14.247-14.812-21.687-11.446-15.719-23.13-29.58-35.418-41.929l22.212-84.311-14.506-3.821-20.116 76.361c-17.232-15.397-35.809-28.205-56.652-39.23l8.479-32.188-14.506-3.821-7.645 29.02c-17.889-9.151-42.349-22.602-51.323-36.839-7.109-11.282-4.052-29.537 3.013-40.669 22.945-36.165 85.318-41.675 121.149-41.675.319.002.644.002.959.003z"/><path d="m306.178 284.567c-8.392 9.15-13.014 21.029-13.014 33.449 0 27.294 22.206 49.5 49.5 49.5s49.499-22.206 49.499-49.5-22.205-49.5-49.499-49.5c-7.798 0-15.569 1.863-22.476 5.387l6.818 13.36c4.873-2.487 10.141-3.748 15.657-3.748 19.022 0 34.499 15.477 34.499 34.5s-15.477 34.5-34.499 34.5c-19.023 0-34.5-15.477-34.5-34.5 0-8.656 3.221-16.935 9.068-23.311z"/><path d="m132.498 131.826h24.65v14.999h-24.65z" transform="matrix(.255 -.967 .967 .255 -26.802 243.873)"/><path d="m213.878 128.869h28.445v15h-28.445z" transform="matrix(.255 -.967 .967 .255 38.121 322.202)"/><path d="m351.141 228.599h31.398v14.999h-31.398z" transform="matrix(.254 -.967 .967 .254 45.359 530.996)"/><path d="m290.988 146.602h29.879v15.001h-29.879z" transform="matrix(.255 -.967 .967 .255 78.978 410.681)"/><path d="m335.164 310.517h15v15h-15z"/><path d="m128.451 165.502h15v14.999h-15z" transform="matrix(.255 -.967 .967 .255 -65.978 260.39)"/><path d="m288.89 182.807h15v15h-15z" transform="matrix(.255 -.967 .967 .255 36.856 428.436)"/><path d="m429.537 270.035c0-37.114-20.518-71.162-59.334-98.462l-8.629 12.27c35.144 24.717 52.963 53.716 52.963 86.192z"/><path d="m211.246 164.379h15v15h-15z" transform="matrix(.255 -.967 .967 .255 -3.189 339.62)"/><path d="m414.537 285.035h15v15h-15z"/></g></svg>