<svg id="Capa_1" enable-background="new 0 0 512 512" height="512" viewBox="0 0 512 512" width="512" xmlns="http://www.w3.org/2000/svg"><g><path d="m369.293 250.109c-3.822 1.617-5.61 6.026-3.993 9.849 6.188 14.624 9.325 30.163 9.325 46.187v72.2c0 65.411-53.216 118.626-118.627 118.626s-118.627-53.215-118.627-118.626v-15.861c0-4.151-3.365-7.515-7.515-7.515s-7.515 3.364-7.515 7.515v15.861c0 73.698 59.958 133.656 133.656 133.656s133.656-59.958 133.656-133.656v-72.2c0-18.046-3.537-35.557-10.513-52.044-1.615-3.821-6.025-5.607-9.847-3.992z"/><path d="m400.541 103.52c-.97-3.153-3.884-5.304-7.182-5.304-18.832 0-35.82 2.05-51.121 5.503 8.852-37.907 21.682-65.788 21.822-66.09 1.358-2.92.705-6.38-1.623-8.604-2.328-2.222-5.813-2.716-8.668-1.227-26.513 13.842-46.669 30.063-61.984 46.961-11.876-41.587-28.558-69.794-29.337-71.099-1.357-2.27-3.807-3.66-6.452-3.66-2.644 0-5.094 1.39-6.451 3.661-.78 1.305-17.462 29.511-29.338 71.098-15.315-16.898-35.471-33.119-61.982-46.961-2.853-1.489-6.338-.996-8.666 1.227-2.328 2.222-2.982 5.682-1.627 8.601.142.305 12.964 28.169 21.815 66.058-15.336-3.454-32.327-5.468-51.108-5.468-3.298 0-6.209 2.151-7.181 5.302-.971 3.152.227 6.569 2.954 8.426.156.106 15.783 10.8 35.238 28.754 3.051 2.815 7.805 2.624 10.619-.427 2.815-3.05 2.624-7.804-.426-10.618-6.358-5.867-12.291-10.968-17.461-15.22 28.28 2.896 53.865 11.084 76.303 24.448 17.498 10.422 30.788 22.704 40.426 33.655-1.036-.023-2.072-.045-3.113-.045-17.442 0-34.112 3.363-49.402 9.467-7.371-10.319-15.821-20.655-25.194-30.798-2.816-3.048-7.57-3.235-10.619-.418-3.048 2.817-3.235 7.571-.418 10.619 8.262 8.94 15.75 18.019 22.366 27.079-41.872 22.597-70.389 66.882-70.389 117.706v26.28c0 4.151 3.365 7.515 7.515 7.515s7.515-3.364 7.515-7.515v-26.28c0-65.411 53.216-118.626 118.627-118.626 37.87 0 72.577 17.446 95.221 47.865 2.478 3.329 7.187 4.02 10.515 1.54 3.329-2.478 4.019-7.186 1.541-10.515-11.663-15.667-26.839-28.758-43.997-38.005 33.258-45.512 77.837-76.141 78.304-76.46 2.728-1.855 3.928-5.272 2.958-8.425zm-58.48-51.555c-5.046 13.735-11.398 33.389-16.201 56.165-22.297 7.02-40.416 17.02-54.823 27.55 11.03-27.407 31.877-58.432 71.024-83.715zm-86.06-28.414c6.598 13.364 16.868 36.779 24.053 65.489-10.993 14.808-18.688 29.766-24.057 43.779-5.369-14.013-13.064-28.972-24.058-43.78 7.173-28.651 17.458-52.103 24.062-65.488zm-69.875 84.542c-4.802-22.761-11.15-42.401-16.193-56.129 39.169 25.298 60.017 56.343 71.042 83.761-14.691-10.767-32.812-20.696-54.849-27.632zm119.296 73.831c-8.195-3.276-16.638-5.708-25.29-7.278-3.694-4.991-8.151-10.46-13.438-16.109 20.924-18.829 54.079-39.002 102.844-44.08-17.265 14.176-42.864 37.7-64.116 67.467z"/><path d="m231.046 284.909 19.64 19.64c1.467 1.467 3.39 2.201 5.314 2.201s3.846-.734 5.314-2.201l19.64-19.64c2.935-2.935 2.935-7.693 0-10.628-2.934-2.933-7.693-2.933-10.627 0l-14.326 14.327-14.326-14.327c-2.934-2.933-7.693-2.933-10.627 0-2.937 2.935-2.937 7.693-.002 10.628z"/><path d="m231.046 337.739 19.64 19.64c1.467 1.467 3.39 2.201 5.314 2.201s3.846-.734 5.314-2.201l19.64-19.64c2.935-2.935 2.935-7.693 0-10.628-2.934-2.934-7.693-2.934-10.627 0l-14.326 14.327-14.326-14.327c-2.934-2.934-7.693-2.934-10.627 0-2.937 2.935-2.937 7.692-.002 10.628z"/><path d="m231.046 390.569 19.64 19.64c1.467 1.467 3.39 2.201 5.314 2.201s3.846-.734 5.314-2.201l19.64-19.64c2.935-2.935 2.935-7.693 0-10.628-2.934-2.934-7.693-2.934-10.627 0l-14.326 14.327-14.326-14.327c-2.934-2.934-7.693-2.934-10.627 0-2.937 2.935-2.937 7.692-.002 10.628z"/><path d="m231.046 443.399 19.64 19.64c1.467 1.467 3.39 2.201 5.314 2.201s3.846-.734 5.314-2.201l19.64-19.64c2.935-2.935 2.935-7.693 0-10.628-2.934-2.933-7.693-2.933-10.627 0l-14.326 14.327-14.326-14.327c-2.934-2.933-7.693-2.933-10.627 0-2.937 2.936-2.937 7.693-.002 10.628z"/><path d="m250.686 251.718c1.467 1.467 3.39 2.201 5.314 2.201s3.846-.734 5.314-2.201l19.64-19.64c2.935-2.935 2.935-7.693 0-10.628-2.934-2.934-7.693-2.934-10.627 0l-14.326 14.327-14.326-14.327c-2.934-2.934-7.693-2.934-10.627 0-2.935 2.935-2.935 7.693 0 10.628z"/><path d="m163.286 313.702 19.64 19.64c1.467 1.467 3.39 2.201 5.314 2.201s3.846-.734 5.314-2.201l19.64-19.64c2.935-2.935 2.935-7.693 0-10.628-2.934-2.934-7.693-2.934-10.627 0l-14.328 14.326-14.326-14.327c-2.935-2.934-7.693-2.934-10.627 0-2.935 2.936-2.935 7.693 0 10.629z"/><path d="m163.286 366.531 19.64 19.64c1.467 1.467 3.39 2.201 5.314 2.201s3.846-.734 5.314-2.201l19.64-19.64c2.935-2.935 2.935-7.693 0-10.628-2.934-2.933-7.693-2.933-10.627 0l-14.326 14.327-14.326-14.327c-2.935-2.933-7.693-2.933-10.627 0-2.937 2.936-2.937 7.693-.002 10.628z"/><path d="m163.286 419.361 19.64 19.64c1.467 1.467 3.39 2.201 5.314 2.201s3.846-.734 5.314-2.201l19.64-19.64c2.935-2.936 2.935-7.693 0-10.628-2.934-2.934-7.693-2.934-10.627 0l-14.326 14.327-14.326-14.327c-2.935-2.934-7.693-2.934-10.627 0-2.937 2.935-2.937 7.693-.002 10.628z"/><path d="m182.926 280.511c1.409 1.41 3.32 2.202 5.314 2.202 1.993 0 3.905-.792 5.314-2.202l19.64-19.641c2.935-2.935 2.934-7.693 0-10.627s-7.693-2.935-10.627.001l-14.326 14.327-14.326-14.327c-2.934-2.935-7.692-2.934-10.627-.001-2.934 2.934-2.935 7.693 0 10.627z"/><path d="m298.806 313.702 19.64 19.64c1.467 1.467 3.391 2.201 5.314 2.201s3.846-.734 5.314-2.201l19.64-19.64c2.935-2.935 2.935-7.693 0-10.628-2.934-2.934-7.693-2.934-10.627 0l-14.327 14.326-14.326-14.327c-2.934-2.934-7.693-2.934-10.627 0-2.936 2.936-2.936 7.693-.001 10.629z"/><path d="m298.806 366.531 19.64 19.64c1.467 1.467 3.391 2.201 5.314 2.201s3.846-.734 5.314-2.201l19.64-19.64c2.935-2.935 2.935-7.693 0-10.628-2.934-2.933-7.693-2.933-10.627 0l-14.327 14.327-14.326-14.327c-2.934-2.933-7.693-2.933-10.627 0-2.936 2.936-2.936 7.693-.001 10.628z"/><path d="m298.806 419.361 19.64 19.64c1.467 1.467 3.391 2.201 5.314 2.201s3.846-.734 5.314-2.201l19.64-19.64c2.935-2.936 2.935-7.693 0-10.628-2.934-2.934-7.693-2.934-10.627 0l-14.327 14.327-14.326-14.327c-2.934-2.934-7.693-2.934-10.627 0-2.936 2.935-2.936 7.693-.001 10.628z"/><path d="m318.446 280.511c1.409 1.41 3.32 2.202 5.314 2.202 1.993 0 3.905-.792 5.314-2.202l19.64-19.641c2.935-2.935 2.934-7.693 0-10.627s-7.693-2.935-10.627.001l-14.327 14.326-14.326-14.327c-2.934-2.935-7.693-2.934-10.627-.001-2.934 2.934-2.935 7.693 0 10.627z"/></g></svg>